HIERARCHY
ROOT Hips
{
	OFFSET 0.00000 0.00000 0.00000
	CHANNELS 6 Xposition Yposition Zposition Zrotation Yrotation Xrotation 
	JOINT LHipJoint
	{
		OFFSET 0 0 0
		CHANNELS 3 Zrotation Yrotation Xrotation
		JOINT LeftHip
		{
			OFFSET 1.36337 -1.57426 1.11036
			CHANNELS 3 Zrotation Yrotation Xrotation
			JOINT LeftKnee
			{
				OFFSET 2.38468 -6.55187 0.00000
				CHANNELS 3 Zrotation Yrotation Xrotation
				JOINT LeftAnkle
				{
					OFFSET 2.37166 -6.51609 0.00000
					CHANNELS 3 Zrotation Yrotation Xrotation
					JOINT LeftToe
					{
						OFFSET 0.29078 -0.79891 2.01393
						CHANNELS 3 Zrotation Yrotation Xrotation
						End Site
						{
							OFFSET 0.00000 -0.00000 1.07924
						}
					}
				}
			}
		}
	}
	JOINT RHipJoint
	{
		OFFSET 0 0 0
		CHANNELS 3 Zrotation Yrotation Xrotation
		JOINT RightHip
		{
			OFFSET -1.36349 -1.57426 1.11036
			CHANNELS 3 Zrotation Yrotation Xrotation
			JOINT RightKnee
			{
				OFFSET -2.29562 -6.30717 0.00000
				CHANNELS 3 Zrotation Yrotation Xrotation
				JOINT RightAnkle
				{
					OFFSET -2.40985 -6.62100 0.00000
					CHANNELS 3 Zrotation Yrotation Xrotation
					JOINT RightToe
					{
						OFFSET -0.23197 -0.63733 1.92232
						CHANNELS 3 Zrotation Yrotation Xrotation
						End Site
						{
							OFFSET -0.00000 -0.00000 1.01562
						}
					}
				}
			}
		}
	}
	JOINT lowerback
	{
		OFFSET 0 0 0
		CHANNELS 3 Zrotation Yrotation Xrotation
		JOINT Chest
		{
			OFFSET -0.08565 2.03602 -0.24562
			CHANNELS 3 Zrotation Yrotation Xrotation
			JOINT Chest2
			{
				OFFSET -0.00036 2.05693 0.00216
				CHANNELS 3 Zrotation Yrotation Xrotation
				JOINT lowerneck
				{
					OFFSET 0 0 0
					CHANNELS 3 Zrotation Yrotation Xrotation
					JOINT Neck
					{
						OFFSET -0.03664 1.69515 0.31789
						CHANNELS 3 Zrotation Yrotation Xrotation
						JOINT Head
						{
							OFFSET 0.00932 1.70181 -0.46013
							CHANNELS 3 Zrotation Yrotation Xrotation
							End Site
							{
								OFFSET 0.01243 1.77620 -0.19377
							}
						}
					}
				}
				JOINT LeftCollar
				{
					OFFSET 0 0 0
					CHANNELS 3 Zrotation Yrotation Xrotation
					JOINT LeftShoulder
					{
						OFFSET 3.74344 0.81315 -0.36647
CHANNELS 3 Zrotation Xrotation Yrotation
						JOINT LeftElbow
						{
OFFSET 0 -4.971850 -0.000000
CHANNELS 3 Zrotation Xrotation Yrotation
							JOINT LeftWrist
							{
OFFSET 0 -3.358110 0.000000
CHANNELS 3 Zrotation Xrotation Yrotation
								JOINT lhand
								{
									OFFSET 0 0 0
CHANNELS 3 Zrotation Xrotation Yrotation
									JOINT LFingers
									{
OFFSET 0 -0.622780 0.000000
CHANNELS 3 Zrotation Xrotation Yrotation
										End Site
										{
OFFSET 0 -0.502100 0.000000
										}
									}
								}
								JOINT LThumb
								{
OFFSET 0 0.000000 0.000000
CHANNELS 3 Zrotation Xrotation Yrotation
									End Site
									{
OFFSET 0 -0.509760 0.509760
									}
								}
							}
						}
					}
				}
				JOINT RightCollar
				{
					OFFSET 0 0 0
					CHANNELS 3 Zrotation Yrotation Xrotation
					JOINT RightShoulder
					{
						OFFSET -3.75385 0.50666 -0.06525
CHANNELS 3 Zrotation Xrotation Yrotation
						JOINT RightElbow
						{
OFFSET 0 -4.964930 -0.000000
CHANNELS 3 Zrotation Xrotation Yrotation
							JOINT RightWrist
							{
OFFSET 0 -3.349290 0.000000
CHANNELS 3 Zrotation Xrotation Yrotation
								JOINT rhand
								{
									OFFSET 0 0 0
CHANNELS 3 Zrotation Xrotation Yrotation
									JOINT RFingers
									{
OFFSET 0 -0.638040 0.000000
CHANNELS 3 Zrotation Xrotation Yrotation
										End Site
										{
OFFSET 0 -0.514410 0.000000
										}
									}
								}
								JOINT RThumb
								{
OFFSET 0 0.000000 0.000000
CHANNELS 3 Zrotation Xrotation Yrotation
									End Site
									{
OFFSET 0 -0.522260 0.522260
									}
								}
							}
						}
					}
				}
			}
		}
	}
}
MOTION
Frames: 8
Frame Time: 0.008333333333333333
-5.119700 16.676900 2.080500 148.196000 73.941900 151.356000 0.000000 0.000000 0.000000 -15.648900 8.951600 -15.768400 3.417600 11.342200 33.442900 -0.139500 6.609100 -2.216100 0.353500 3.819800 10.570400 0.000000 0.000000 0.000000 12.654400 -3.161700 -6.866100 -2.024000 -8.915900 25.532700 -1.898600 -8.294300 -30.113300 -1.335400 -7.317200 20.658500 -7.691900 -0.044300 -2.291100 0.263600 0.335500 3.468900 4.615600 -0.102600 4.872200 -3.359800 0.298400 -23.267300 -0.673900 2.524300 29.465600 0.813400 0.783400 13.912400 -0.000000 0.000000 0.000000 -2.511700 -2.189900 -26.883400 17.448800 -27.445600 4.292100 25.399200 -20.317000 11.746800 0.000000 0.000000 0.000000 -7.125000 0.000000 0.000000 -1.238600 17.018500 -0.822000 -0.000000 0.000000 0.000000 -3.304300 -3.786400 7.476300 -11.620000 -19.232300 -1.975300 -12.292600 6.258200 31.621300 0.000000 0.000000 0.000000 7.125000 0.000000 -0.000000 22.821200 60.732400 -9.022100
-5.058389 16.702069 2.063366 148.157299 73.969470 151.467668 0.000000 0.000000 0.000000 -15.511276 7.401546 -15.454002 2.754547 10.282788 29.901065 -0.114801 6.859432 -5.992632 0.092214 -1.672934 -4.611055 0.000000 0.000000 0.000000 12.832584 -2.492361 -5.879587 -1.864650 -8.577925 24.483877 -1.871008 -9.162837 -30.502393 -1.208988 -6.975377 19.642439 -7.851642 -0.227160 -2.427134 0.478288 0.083845 3.239632 4.915366 -0.229467 4.744421 -3.279795 0.740900 -22.743535 -1.133110 3.220369 28.775382 0.731365 1.042406 13.510757 0.000000 0.000000 0.000000 -2.943317 -1.412641 -25.937207 17.764478 -27.854551 4.438637 24.183556 -19.378628 11.149593 0.000000 0.000000 0.000000 -7.125000 0.000000 0.000000 -2.055629 17.792647 -1.329494 0.000000 0.000000 0.000000 -3.704819 -3.412404 7.972425 -11.659394 -19.291810 -1.988331 -12.555192 6.358380 31.337143 0.000000 0.000000 0.000000 7.125000 0.000000 0.000000 22.306938 60.535122 -8.702292
-4.997256 16.734197 2.018527 146.952093 74.366908 150.509459 0.000000 0.000000 0.000000 -15.563850 5.855087 -14.891024 2.033943 8.929177 25.578986 -0.053197 8.432790 -10.811173 1.353041 -7.167569 -20.298488 0.000000 0.000000 0.000000 12.721206 -1.870579 -5.069080 -1.689787 -8.186965 23.283789 -1.846943 -9.549973 -30.610701 -1.183890 -6.904503 19.432897 -7.904153 -0.336558 -2.557822 0.549476 -0.076175 2.859122 5.009216 -0.292421 4.440810 -3.421372 0.933329 -21.633421 -1.601665 3.615464 28.018832 0.623740 1.164922 12.973824 0.000000 0.000000 0.000000 -3.222574 -0.575691 -25.023167 17.671481 -27.734418 4.395303 22.945552 -18.024868 10.689656 0.000000 0.000000 0.000000 -7.125000 0.000000 0.000000 -2.906602 18.403808 -1.842392 0.000000 0.000000 0.000000 -4.007217 -2.458033 9.286022 -11.982541 -19.778411 -2.096439 -12.331289 5.117037 32.026017 0.000000 0.000000 0.000000 7.125000 0.000000 0.000000 23.129479 61.109828 -9.360215
-4.930632 16.767680 1.952779 146.694556 75.208917 150.813539 0.000000 0.000000 0.000000 -14.930636 3.082534 -14.183601 1.460121 7.633495 21.608158 0.074669 9.554799 -14.807876 1.718291 -8.251330 -23.481008 0.000000 0.000000 0.000000 12.908307 -2.024494 -4.974942 -1.508968 -7.757540 21.980400 -1.828220 -8.923479 -30.071723 -0.996550 -6.352148 17.809855 -7.502995 -0.381122 -3.173840 0.635850 -0.120955 2.670372 4.871083 -0.306827 4.594271 -3.176022 1.030669 -21.343272 -2.260833 3.804708 27.340305 0.352317 1.195656 12.660792 0.000000 0.000000 0.000000 -3.153423 -0.374343 -24.693681 17.220800 -27.147795 4.187693 21.761071 -17.360906 10.447204 0.000000 0.000000 0.000000 -7.125000 0.000000 0.000000 -3.735690 18.763837 -2.340376 0.000000 0.000000 0.000000 -4.162204 -2.423219 10.217231 -12.175252 -20.066871 -2.162059 -12.146408 3.977425 32.650780 0.000000 0.000000 0.000000 7.125000 0.000000 0.000000 23.882088 61.629656 -9.979943
-4.862047 16.774493 1.873356 147.693048 75.755841 151.940674 0.000000 0.000000 0.000000 -14.203171 0.381333 -13.580449 1.157396 6.830032 19.212803 0.199076 9.604359 -16.636344 1.432910 -7.568499 -21.411083 0.000000 0.000000 0.000000 13.199921 -2.443338 -4.307638 -1.331274 -7.306320 20.626051 -1.740858 -8.969176 -29.538234 -0.792000 -5.680656 15.860625 -7.268263 -0.456145 -3.458942 0.790166 -0.220109 2.660001 4.893680 -0.358308 4.757825 -2.539377 1.216776 -21.056905 -3.059706 4.038869 26.817574 -0.024994 1.269366 12.428399 0.000000 0.000000 0.000000 -3.160884 -0.362800 -24.388157 16.579122 -26.299631 3.899073 20.729462 -16.073363 10.343564 0.000000 0.000000 0.000000 -7.125000 0.000000 0.000000 -4.463912 18.955748 -2.780219 0.000000 0.000000 0.000000 -4.291562 -2.725005 10.332550 -12.126242 -19.993672 -2.145234 -12.083414 3.646890 31.652296 0.000000 0.000000 0.000000 7.125000 0.000000 0.000000 23.067336 60.710445 -9.113410
-4.795665 16.784994 1.763695 148.843641 76.772764 153.301205 0.000000 0.000000 0.000000 -13.264255 -2.257751 -13.585767 1.054723 6.530240 18.330845 0.553725 8.275381 -19.445616 0.506184 -4.528044 -12.572483 0.000000 0.000000 0.000000 13.497025 -3.104163 -4.074125 -1.189432 -6.920406 19.479863 -1.658754 -8.249130 -28.513275 -0.648626 -5.151624 14.341594 -6.840885 -0.456848 -3.473336 0.967160 -0.267144 2.355621 4.834138 -0.353668 4.447009 -1.891225 1.592826 -20.998339 -3.328009 4.443119 26.947166 -0.168040 1.478632 12.491259 0.000000 0.000000 0.000000 -3.449239 0.061296 -22.940470 15.857597 -25.326301 3.585339 20.470376 -14.596586 10.544820 0.000000 0.000000 0.000000 -7.125000 0.000000 0.000000 -4.651424 18.762537 -2.917903 0.000000 0.000000 0.000000 -4.405440 -2.877739 10.492561 -11.998417 -19.802261 -2.101772 -12.377396 4.566424 31.973362 0.000000 0.000000 0.000000 7.125000 0.000000 0.000000 23.034322 61.073075 -9.298918
-4.725354 16.762777 1.635228 150.020641 77.484547 154.380392 0.000000 0.000000 0.000000 -12.806913 -3.433643 -13.533742 1.061511 6.550420 18.390082 0.634278 6.972667 -19.171002 0.333782 -3.712430 -10.269043 0.000000 0.000000 0.000000 13.678463 -2.889768 -3.212344 -1.097786 -6.657811 18.705575 -1.656666 -8.281147 -28.520311 -0.602029 -4.966532 13.813105 -6.640826 -0.459827 -3.415737 1.025607 -0.289016 2.349328 4.780724 -0.358027 4.408294 -1.585401 1.804744 -20.942947 -3.151919 4.575145 26.958374 -0.131573 1.591051 12.484723 0.000000 0.000000 0.000000 -3.588227 -0.289046 -21.492493 14.829140 -23.906897 3.156779 21.022522 -12.691938 10.146465 0.000000 0.000000 0.000000 -7.125000 0.000000 0.000000 -4.251885 19.142699 -2.629824 0.000000 0.000000 0.000000 -4.254649 -3.356051 9.990636 -11.878789 -19.622547 -2.061439 -12.871507 5.490321 31.151302 0.000000 0.000000 0.000000 7.125000 0.000000 0.000000 21.821588 60.439561 -8.452722
-4.654275 16.740071 1.484032 151.450558 78.399633 155.550392 0.000000 0.000000 0.000000 -12.658633 -2.658722 -13.816384 1.144766 6.793748 19.105862 0.552330 6.646639 -18.019295 0.289625 -3.458747 -9.558720 0.000000 0.000000 0.000000 13.871241 -2.832828 -2.374537 -1.029939 -6.455107 18.110767 -1.637838 -8.297668 -28.403847 -0.485658 -4.466054 12.392027 -6.435301 -0.595172 -3.314602 1.186141 -0.487171 2.531235 4.818796 -0.462452 4.566926 -1.605982 2.117804 -21.393462 -2.852017 4.972893 27.326588 0.060172 1.788369 12.716583 0.000000 0.000000 0.000000 -3.868159 -0.631914 -19.836056 14.098727 -22.875349 2.866575 21.393739 -11.581126 9.720348 0.000000 0.000000 0.000000 -7.125000 0.000000 0.000000 -3.978590 19.568415 -2.422030 0.000000 0.000000 0.000000 -4.350716 -4.000109 10.718114 -11.916964 -19.679961 -2.074265 -13.695465 5.058841 28.432582 0.000000 0.000000 0.000000 7.125000 0.000000 0.000000 18.965986 58.086375 -6.241056
